<svg width="57" height="57" viewBox="0 0 57 57" fill="none" xmlns="http://www.w3.org/2000/svg">
<rect y="28.5" width="40.3051" height="40.3051" transform="rotate(-45 0 28.5)" fill="#524746"/>
<path d="M16.6234 23.0367H39.591C40.0789 23.0367 40.4743 22.6464 40.4743 22.1648V19.9851C40.4743 19.5035 40.0789 19.1132 39.591 19.1132H16.6234C16.1355 19.1132 15.74 19.5035 15.74 19.9851V22.1648C15.74 22.6464 16.1355 23.0367 16.6234 23.0367ZM20.2628 31.7557H39.591C40.0789 31.7557 40.4743 31.3654 40.4743 30.8838V28.7041C40.4743 28.2225 40.0789 27.8322 39.591 27.8322H20.2628C19.7749 27.8322 19.3795 28.2225 19.3795 28.7041V30.8838C19.3795 31.3654 19.7749 31.7557 20.2628 31.7557ZM23.0896 40.4747H39.591C40.0789 40.4747 40.4743 40.0843 40.4743 39.6028V37.423C40.4743 36.9415 40.0789 36.5511 39.591 36.5511H23.0896C22.6017 36.5511 22.2063 36.9415 22.2063 37.423V39.6028C22.2063 40.0843 22.6017 40.4747 23.0896 40.4747Z" fill="white"/>
</svg>
